<svg fill="none" viewBox="0 0 64 32" xmlns="http://www.w3.org/2000/svg"><path d="m0 0v32h64v-32" fill="#006747"/><path d="m0 7.55591v16.88889h64v-16.88889" fill="#000"/><path d="m0 8.44458v15.11112h64v-15.11112" fill="#012169"/><g fill="#fff"><path d="m32.5942 16.3521-.5944-1.8744-.5924 1.8744-1.966-.0153 1.5993 1.1424-.6222 1.8653 1.5813-1.1674 1.5813 1.1674-.6209-1.8653 1.5987-1.1424z"/><path d="m32.8583 9.03723.0049.01597-.8632 2.9146-.8584-2.93057c-9.2453 1.97777-5.0681 10.00777-3.9604 12.11057l-2.2466 1.8153 3.9771-1.3882v-5.2424c0-1.7042 1.3806-3.0855 3.0855-3.0855 1.7042 0 3.0855 1.3813 3.0855 3.0855l.0055 5.2424 3.9772 1.3882-2.2452-1.8153c1.1063-2.1028 5.2841-10.1328-3.9619-12.11057z"/></g></svg>